<mxfile host="app.diagrams.net" modified="2023-04-12T06:22:55.461Z" agent="Mozilla/5.0 (Windows NT 10.0; Win64; x64; rv:109.0) Gecko/20100101 Firefox/112.0" etag="58vDmkSGoSqnDAQpJ3oh" version="21.1.1" type="github">
  <diagram name="第 1 页" id="DXJGyLKz47heCSHpzHNM">
    <mxGraphModel dx="1430" dy="763" grid="1" gridSize="10" guides="1" tooltips="1" connect="1" arrows="1" fold="1" page="1" pageScale="1" pageWidth="827" pageHeight="1169" math="0" shadow="0">
      <root>
        <mxCell id="0" />
        <mxCell id="1" parent="0" />
        <mxCell id="DaVctwpaXnIbaY3s7kiL-62" value="ContentType" style="rounded=0;whiteSpace=wrap;html=1;container=0;fontFamily=Verdana;" parent="1" vertex="1">
          <mxGeometry x="400" y="560" width="120" height="30" as="geometry" />
        </mxCell>
        <mxCell id="xr7TNN4HcSWkNFldf1mO-2" value="&lt;font&gt;&lt;b&gt;PE/COFF file format&lt;/b&gt;&lt;/font&gt;" style="text;html=1;strokeColor=none;fillColor=none;align=center;verticalAlign=middle;whiteSpace=wrap;rounded=0;container=0;fontFamily=Verdana;" parent="1" vertex="1">
          <mxGeometry x="75" y="160" width="200" height="30" as="geometry" />
        </mxCell>
        <mxCell id="xr7TNN4HcSWkNFldf1mO-1" value="MS-DOS" style="rounded=0;whiteSpace=wrap;html=1;container=0;fontFamily=Verdana;" parent="1" vertex="1">
          <mxGeometry x="110" y="200" width="120" height="60" as="geometry" />
        </mxCell>
        <mxCell id="xr7TNN4HcSWkNFldf1mO-3" value="&lt;div&gt;PE Header&lt;/div&gt;&lt;div&gt;&lt;br&gt;&lt;/div&gt;&lt;div&gt;&lt;br&gt;&lt;/div&gt;&lt;div&gt;&lt;br&gt;&lt;/div&gt;&lt;div&gt;&lt;br&gt;&lt;/div&gt;&lt;div&gt;&lt;br&gt;&lt;/div&gt;&lt;div&gt;&lt;br&gt;&lt;/div&gt;" style="rounded=0;whiteSpace=wrap;html=1;container=0;fontFamily=Verdana;" parent="1" vertex="1">
          <mxGeometry x="110" y="250" width="120" height="100" as="geometry" />
        </mxCell>
        <mxCell id="xr7TNN4HcSWkNFldf1mO-4" value="Optional Header" style="rounded=0;whiteSpace=wrap;html=1;container=0;fontFamily=Verdana;" parent="1" vertex="1">
          <mxGeometry x="120" y="330" width="110" height="20" as="geometry" />
        </mxCell>
        <mxCell id="xr7TNN4HcSWkNFldf1mO-5" value="Standard Fileds" style="rounded=0;whiteSpace=wrap;html=1;container=0;fontFamily=Verdana;" parent="1" vertex="1">
          <mxGeometry x="340" y="260" width="120" height="30" as="geometry" />
        </mxCell>
        <mxCell id="xr7TNN4HcSWkNFldf1mO-6" value="" style="endArrow=classic;html=1;rounded=0;entryX=0;entryY=0;entryDx=0;entryDy=0;exitX=1;exitY=1;exitDx=0;exitDy=0;fontFamily=Verdana;" parent="1" source="xr7TNN4HcSWkNFldf1mO-12" target="xr7TNN4HcSWkNFldf1mO-5" edge="1">
          <mxGeometry width="50" height="50" relative="1" as="geometry">
            <mxPoint x="230" y="300" as="sourcePoint" />
            <mxPoint x="280" y="250" as="targetPoint" />
          </mxGeometry>
        </mxCell>
        <mxCell id="xr7TNN4HcSWkNFldf1mO-8" value="Windows Fileds" style="rounded=0;whiteSpace=wrap;html=1;container=0;fontFamily=Verdana;" parent="1" vertex="1">
          <mxGeometry x="340" y="290" width="120" height="30" as="geometry" />
        </mxCell>
        <mxCell id="xr7TNN4HcSWkNFldf1mO-9" value="Data Directories" style="rounded=0;whiteSpace=wrap;html=1;container=0;fontFamily=Verdana;" parent="1" vertex="1">
          <mxGeometry x="340" y="320" width="120" height="30" as="geometry" />
        </mxCell>
        <mxCell id="xr7TNN4HcSWkNFldf1mO-12" value="COFF Header" style="rounded=0;whiteSpace=wrap;html=1;container=0;fontFamily=Verdana;" parent="1" vertex="1">
          <mxGeometry x="120" y="310" width="110" height="20" as="geometry" />
        </mxCell>
        <mxCell id="xr7TNN4HcSWkNFldf1mO-13" value="Signature" style="rounded=0;whiteSpace=wrap;html=1;container=0;fontFamily=Verdana;" parent="1" vertex="1">
          <mxGeometry x="120" y="290" width="110" height="20" as="geometry" />
        </mxCell>
        <mxCell id="xr7TNN4HcSWkNFldf1mO-14" value="Dos Header" style="rounded=0;whiteSpace=wrap;html=1;container=0;fontFamily=Verdana;" parent="1" vertex="1">
          <mxGeometry x="120" y="270" width="110" height="20" as="geometry" />
        </mxCell>
        <mxCell id="xr7TNN4HcSWkNFldf1mO-15" value="" style="endArrow=classic;html=1;rounded=0;entryX=0;entryY=1;entryDx=0;entryDy=0;fontFamily=Verdana;" parent="1" target="xr7TNN4HcSWkNFldf1mO-9" edge="1">
          <mxGeometry width="50" height="50" relative="1" as="geometry">
            <mxPoint x="230" y="380" as="sourcePoint" />
            <mxPoint x="280" y="330" as="targetPoint" />
          </mxGeometry>
        </mxCell>
        <mxCell id="xr7TNN4HcSWkNFldf1mO-16" value="" style="endArrow=classic;html=1;rounded=0;fontFamily=Verdana;" parent="1" edge="1">
          <mxGeometry width="50" height="50" relative="1" as="geometry">
            <mxPoint x="460" y="320" as="sourcePoint" />
            <mxPoint x="540" y="280" as="targetPoint" />
          </mxGeometry>
        </mxCell>
        <mxCell id="xr7TNN4HcSWkNFldf1mO-17" value="Data Directories" style="rounded=0;whiteSpace=wrap;html=1;container=0;fontFamily=Verdana;" parent="1" vertex="1">
          <mxGeometry x="540" y="280" width="120" height="30" as="geometry" />
        </mxCell>
        <mxCell id="xr7TNN4HcSWkNFldf1mO-18" value="Data Directories" style="rounded=0;whiteSpace=wrap;html=1;container=0;fontFamily=Verdana;" parent="1" vertex="1">
          <mxGeometry x="540" y="310" width="120" height="30" as="geometry" />
        </mxCell>
        <mxCell id="xr7TNN4HcSWkNFldf1mO-19" value="Data Directories" style="rounded=0;whiteSpace=wrap;html=1;container=0;fontFamily=Verdana;" parent="1" vertex="1">
          <mxGeometry x="540" y="340" width="120" height="30" as="geometry" />
        </mxCell>
        <mxCell id="xr7TNN4HcSWkNFldf1mO-20" value="Data Directories" style="rounded=0;whiteSpace=wrap;html=1;container=0;fontFamily=Verdana;" parent="1" vertex="1">
          <mxGeometry x="540" y="370" width="120" height="30" as="geometry" />
        </mxCell>
        <mxCell id="xr7TNN4HcSWkNFldf1mO-21" value="5th Entry" style="rounded=0;whiteSpace=wrap;html=1;fillColor=#e1d5e7;strokeColor=#9673a6;container=0;fontFamily=Verdana;" parent="1" vertex="1">
          <mxGeometry x="540" y="400" width="120" height="30" as="geometry" />
        </mxCell>
        <mxCell id="xr7TNN4HcSWkNFldf1mO-22" value="..." style="rounded=0;whiteSpace=wrap;html=1;container=0;fontFamily=Verdana;" parent="1" vertex="1">
          <mxGeometry x="540" y="430" width="120" height="30" as="geometry" />
        </mxCell>
        <mxCell id="xr7TNN4HcSWkNFldf1mO-23" value="Data Directories" style="rounded=0;whiteSpace=wrap;html=1;container=0;fontFamily=Verdana;" parent="1" vertex="1">
          <mxGeometry x="540" y="460" width="120" height="30" as="geometry" />
        </mxCell>
        <mxCell id="xr7TNN4HcSWkNFldf1mO-24" value="" style="endArrow=classic;html=1;rounded=0;entryX=0;entryY=1;entryDx=0;entryDy=0;fontFamily=Verdana;" parent="1" target="xr7TNN4HcSWkNFldf1mO-23" edge="1">
          <mxGeometry width="50" height="50" relative="1" as="geometry">
            <mxPoint x="460" y="350" as="sourcePoint" />
            <mxPoint x="510" y="300" as="targetPoint" />
          </mxGeometry>
        </mxCell>
        <mxCell id="DaVctwpaXnIbaY3s7kiL-11" style="edgeStyle=orthogonalEdgeStyle;rounded=0;orthogonalLoop=1;jettySize=auto;html=1;entryX=1;entryY=0;entryDx=0;entryDy=0;curved=1;exitX=1;exitY=0.5;exitDx=0;exitDy=0;fontFamily=Verdana;" parent="1" source="DaVctwpaXnIbaY3s7kiL-3" target="DaVctwpaXnIbaY3s7kiL-10" edge="1">
          <mxGeometry relative="1" as="geometry">
            <Array as="points">
              <mxPoint x="830" y="385" />
              <mxPoint x="830" y="510" />
              <mxPoint x="420" y="510" />
              <mxPoint x="420" y="410" />
            </Array>
          </mxGeometry>
        </mxCell>
        <mxCell id="DaVctwpaXnIbaY3s7kiL-3" value="virtual_address" style="rounded=0;whiteSpace=wrap;html=1;container=0;fontFamily=Verdana;" parent="1" vertex="1">
          <mxGeometry x="700" y="370" width="120" height="30" as="geometry" />
        </mxCell>
        <mxCell id="DaVctwpaXnIbaY3s7kiL-6" value="size" style="rounded=0;whiteSpace=wrap;html=1;container=0;fontFamily=Verdana;" parent="1" vertex="1">
          <mxGeometry x="700" y="400" width="120" height="30" as="geometry" />
        </mxCell>
        <mxCell id="DaVctwpaXnIbaY3s7kiL-7" value="" style="endArrow=classic;html=1;rounded=0;entryX=0;entryY=0;entryDx=0;entryDy=0;fontFamily=Verdana;" parent="1" target="DaVctwpaXnIbaY3s7kiL-3" edge="1">
          <mxGeometry width="50" height="50" relative="1" as="geometry">
            <mxPoint x="660" y="400" as="sourcePoint" />
            <mxPoint x="710" y="350" as="targetPoint" />
          </mxGeometry>
        </mxCell>
        <mxCell id="DaVctwpaXnIbaY3s7kiL-8" value="" style="endArrow=classic;html=1;rounded=0;exitX=1;exitY=0;exitDx=0;exitDy=0;entryX=0;entryY=1;entryDx=0;entryDy=0;fontFamily=Verdana;" parent="1" source="xr7TNN4HcSWkNFldf1mO-22" target="DaVctwpaXnIbaY3s7kiL-6" edge="1">
          <mxGeometry width="50" height="50" relative="1" as="geometry">
            <mxPoint x="690" y="540" as="sourcePoint" />
            <mxPoint x="740" y="490" as="targetPoint" />
          </mxGeometry>
        </mxCell>
        <mxCell id="DaVctwpaXnIbaY3s7kiL-9" value="..." style="rounded=0;whiteSpace=wrap;html=1;container=0;fontFamily=Verdana;" parent="1" vertex="1">
          <mxGeometry x="110" y="380" width="120" height="30" as="geometry" />
        </mxCell>
        <mxCell id="DaVctwpaXnIbaY3s7kiL-10" value="Signature Structure" style="rounded=0;whiteSpace=wrap;html=1;container=0;fillColor=#e1d5e7;strokeColor=#9673a6;fontFamily=Verdana;" parent="1" vertex="1">
          <mxGeometry x="110" y="410" width="120" height="30" as="geometry" />
        </mxCell>
        <mxCell id="DaVctwpaXnIbaY3s7kiL-21" value="&lt;div&gt;WIN_CERTIFICATE&lt;/div&gt;&lt;div&gt;&lt;br&gt;&lt;/div&gt;&lt;div&gt;&lt;br&gt;&lt;/div&gt;&lt;div&gt;&lt;br&gt;&lt;/div&gt;&lt;div&gt;&lt;br&gt;&lt;/div&gt;&lt;div&gt;&lt;br&gt;&lt;/div&gt;&lt;div&gt;&lt;br&gt;&lt;/div&gt;" style="rounded=0;whiteSpace=wrap;html=1;container=0;fontFamily=Verdana;" parent="1" vertex="1">
          <mxGeometry x="260" y="510" width="120" height="100" as="geometry" />
        </mxCell>
        <mxCell id="DaVctwpaXnIbaY3s7kiL-23" value=" Authenticode signature" style="rounded=0;whiteSpace=wrap;html=1;container=0;fontFamily=Verdana;" parent="1" vertex="1">
          <mxGeometry x="270" y="555" width="110" height="55" as="geometry" />
        </mxCell>
        <mxCell id="DaVctwpaXnIbaY3s7kiL-24" value="" style="endArrow=classic;html=1;rounded=0;entryX=0;entryY=0;entryDx=0;entryDy=0;fontFamily=Verdana;" parent="1" target="DaVctwpaXnIbaY3s7kiL-21" edge="1">
          <mxGeometry width="50" height="50" relative="1" as="geometry">
            <mxPoint x="230" y="410" as="sourcePoint" />
            <mxPoint x="310" y="370" as="targetPoint" />
          </mxGeometry>
        </mxCell>
        <mxCell id="DaVctwpaXnIbaY3s7kiL-25" value="" style="endArrow=classic;html=1;rounded=0;entryX=0;entryY=1;entryDx=0;entryDy=0;fontFamily=Verdana;" parent="1" target="DaVctwpaXnIbaY3s7kiL-21" edge="1">
          <mxGeometry width="50" height="50" relative="1" as="geometry">
            <mxPoint x="230" y="440" as="sourcePoint" />
            <mxPoint x="270" y="470" as="targetPoint" />
          </mxGeometry>
        </mxCell>
        <mxCell id="DaVctwpaXnIbaY3s7kiL-30" value="Version" style="rounded=0;whiteSpace=wrap;html=1;container=0;fontFamily=Verdana;" parent="1" vertex="1">
          <mxGeometry x="550" y="602.5" width="120" height="20" as="geometry" />
        </mxCell>
        <mxCell id="DaVctwpaXnIbaY3s7kiL-34" value="ContentInfo" style="rounded=0;whiteSpace=wrap;html=1;container=0;fontFamily=Verdana;" parent="1" vertex="1">
          <mxGeometry x="550" y="642.5" width="120" height="30" as="geometry" />
        </mxCell>
        <mxCell id="DaVctwpaXnIbaY3s7kiL-35" value="&lt;div&gt; PKCS#7 SignedData structure&lt;font&gt;&lt;b&gt;&lt;/b&gt;&lt;/font&gt;&lt;/div&gt;&lt;div&gt;&lt;b&gt;&lt;font&gt;&lt;br&gt;&lt;/font&gt;&lt;/b&gt;&lt;/div&gt;&lt;div&gt;&lt;b&gt;&lt;font&gt;&lt;br&gt;&lt;/font&gt;&lt;/b&gt;&lt;/div&gt;&lt;div&gt;&lt;b&gt;&lt;font&gt;&lt;br&gt;&lt;/font&gt;&lt;/b&gt;&lt;/div&gt;&lt;div&gt;&lt;b&gt;&lt;font&gt;&lt;br&gt;&lt;/font&gt;&lt;/b&gt;&lt;/div&gt;&lt;div&gt;&lt;b&gt;&lt;font&gt;&lt;br&gt;&lt;/font&gt;&lt;/b&gt;&lt;/div&gt;&lt;div&gt;&lt;b&gt;&lt;font&gt;&lt;br&gt;&lt;/font&gt;&lt;/b&gt;&lt;/div&gt;&lt;div&gt;&lt;b&gt;&lt;font&gt;&lt;br&gt;&lt;/font&gt;&lt;/b&gt;&lt;/div&gt;&lt;div&gt;&lt;b&gt;&lt;font&gt;&lt;br&gt;&lt;/font&gt;&lt;/b&gt;&lt;/div&gt;" style="text;whiteSpace=wrap;html=1;fontFamily=Verdana;" parent="1" vertex="1">
          <mxGeometry x="550" y="575" width="210" height="20" as="geometry" />
        </mxCell>
        <mxCell id="DaVctwpaXnIbaY3s7kiL-36" value="Header" style="rounded=0;whiteSpace=wrap;html=1;container=0;fontFamily=Verdana;" parent="1" vertex="1">
          <mxGeometry x="270" y="530" width="110" height="25" as="geometry" />
        </mxCell>
        <mxCell id="DaVctwpaXnIbaY3s7kiL-39" value="SignerInfo" style="rounded=0;whiteSpace=wrap;html=1;container=0;fontFamily=Verdana;" parent="1" vertex="1">
          <mxGeometry x="550" y="702.5" width="120" height="30" as="geometry" />
        </mxCell>
        <mxCell id="DaVctwpaXnIbaY3s7kiL-43" value="digestAlg" style="rounded=0;whiteSpace=wrap;html=1;container=0;fontFamily=Verdana;" parent="1" vertex="1">
          <mxGeometry x="550" y="622.5" width="120" height="20" as="geometry" />
        </mxCell>
        <mxCell id="DaVctwpaXnIbaY3s7kiL-44" value="Certificates" style="rounded=0;whiteSpace=wrap;html=1;container=0;fontFamily=Verdana;" parent="1" vertex="1">
          <mxGeometry x="550" y="672.5" width="120" height="30" as="geometry" />
        </mxCell>
        <mxCell id="DaVctwpaXnIbaY3s7kiL-51" value="..." style="rounded=0;whiteSpace=wrap;html=1;container=0;fontFamily=Verdana;fillColor=#e1d5e7;strokeColor=#9673a6;" parent="1" vertex="1">
          <mxGeometry x="110" y="440" width="120" height="30" as="geometry" />
        </mxCell>
        <mxCell id="DaVctwpaXnIbaY3s7kiL-52" value="Signature Structure" style="rounded=0;whiteSpace=wrap;html=1;container=0;fontFamily=Verdana;fillColor=#e1d5e7;strokeColor=#9673a6;" parent="1" vertex="1">
          <mxGeometry x="110" y="470" width="120" height="30" as="geometry" />
        </mxCell>
        <mxCell id="DaVctwpaXnIbaY3s7kiL-58" value="&lt;p class=&quot;heading-anchor&quot; id=&quot;the-attribute-certificate-table-image-only&quot;&gt;&lt;font&gt;pointer to The Attribute Certificate Table&lt;br&gt;&lt;/font&gt;&lt;/p&gt;" style="text;html=1;align=center;verticalAlign=middle;resizable=0;points=[];autosize=1;strokeColor=none;fillColor=none;fontFamily=Verdana;" parent="1" vertex="1">
          <mxGeometry x="440" y="490" width="280" height="50" as="geometry" />
        </mxCell>
        <mxCell id="DaVctwpaXnIbaY3s7kiL-69" value="Content" style="rounded=0;whiteSpace=wrap;html=1;fontFamily=Verdana;" parent="1" vertex="1">
          <mxGeometry x="400" y="590" width="120" height="30" as="geometry" />
        </mxCell>
        <mxCell id="DaVctwpaXnIbaY3s7kiL-70" value="" style="endArrow=classic;html=1;rounded=0;exitX=1;exitY=1;exitDx=0;exitDy=0;entryX=0;entryY=0;entryDx=0;entryDy=0;fontFamily=Verdana;" parent="1" source="DaVctwpaXnIbaY3s7kiL-36" target="DaVctwpaXnIbaY3s7kiL-62" edge="1">
          <mxGeometry width="50" height="50" relative="1" as="geometry">
            <mxPoint x="380" y="550" as="sourcePoint" />
            <mxPoint x="430" y="500" as="targetPoint" />
          </mxGeometry>
        </mxCell>
        <mxCell id="DaVctwpaXnIbaY3s7kiL-71" value="" style="endArrow=classic;html=1;rounded=0;entryX=0;entryY=1;entryDx=0;entryDy=0;fontFamily=Verdana;" parent="1" target="DaVctwpaXnIbaY3s7kiL-69" edge="1">
          <mxGeometry width="50" height="50" relative="1" as="geometry">
            <mxPoint x="380" y="610" as="sourcePoint" />
            <mxPoint x="430" y="560" as="targetPoint" />
          </mxGeometry>
        </mxCell>
        <mxCell id="DaVctwpaXnIbaY3s7kiL-72" value="" style="endArrow=classic;html=1;rounded=0;entryX=0;entryY=0;entryDx=0;entryDy=0;fontFamily=Verdana;exitX=1;exitY=0;exitDx=0;exitDy=0;" parent="1" target="DaVctwpaXnIbaY3s7kiL-30" edge="1" source="DaVctwpaXnIbaY3s7kiL-69">
          <mxGeometry width="50" height="50" relative="1" as="geometry">
            <mxPoint x="520" y="560" as="sourcePoint" />
            <mxPoint x="570" y="510" as="targetPoint" />
          </mxGeometry>
        </mxCell>
        <mxCell id="DaVctwpaXnIbaY3s7kiL-73" value="" style="endArrow=classic;html=1;rounded=0;fontFamily=Verdana;" parent="1" edge="1">
          <mxGeometry width="50" height="50" relative="1" as="geometry">
            <mxPoint x="520" y="620" as="sourcePoint" />
            <mxPoint x="550" y="730" as="targetPoint" />
          </mxGeometry>
        </mxCell>
        <mxCell id="DaVctwpaXnIbaY3s7kiL-77" value="other sections" style="rounded=0;whiteSpace=wrap;html=1;container=0;fontFamily=Verdana;dashed=1;" parent="1" vertex="1">
          <mxGeometry x="110" y="500" width="120" height="30" as="geometry" />
        </mxCell>
        <mxCell id="e_cj9tgiayqz5bf3QVdc-1" value="" style="rounded=0;whiteSpace=wrap;html=1;fillColor=#e1d5e7;strokeColor=#9673a6;" vertex="1" parent="1">
          <mxGeometry x="100" y="70" width="30" height="30" as="geometry" />
        </mxCell>
        <mxCell id="e_cj9tgiayqz5bf3QVdc-2" value="not calculating in the PE digest" style="text;html=1;align=center;verticalAlign=middle;resizable=0;points=[];autosize=1;strokeColor=none;fillColor=none;fontFamily=Verdana;" vertex="1" parent="1">
          <mxGeometry x="150" y="70" width="220" height="30" as="geometry" />
        </mxCell>
        <mxCell id="e_cj9tgiayqz5bf3QVdc-5" value="image_base" style="rounded=0;whiteSpace=wrap;html=1;container=0;fontFamily=Verdana;" vertex="1" parent="1">
          <mxGeometry x="540" y="110" width="120" height="30" as="geometry" />
        </mxCell>
        <mxCell id="e_cj9tgiayqz5bf3QVdc-6" value="..." style="rounded=0;whiteSpace=wrap;html=1;container=0;fontFamily=Verdana;" vertex="1" parent="1">
          <mxGeometry x="540" y="140" width="120" height="30" as="geometry" />
        </mxCell>
        <mxCell id="e_cj9tgiayqz5bf3QVdc-7" value="check sum" style="rounded=0;whiteSpace=wrap;html=1;fillColor=#e1d5e7;strokeColor=#9673a6;container=0;fontFamily=Verdana;" vertex="1" parent="1">
          <mxGeometry x="540" y="170" width="120" height="30" as="geometry" />
        </mxCell>
        <mxCell id="e_cj9tgiayqz5bf3QVdc-8" value="..." style="rounded=0;whiteSpace=wrap;html=1;container=0;fontFamily=Verdana;" vertex="1" parent="1">
          <mxGeometry x="540" y="200" width="120" height="30" as="geometry" />
        </mxCell>
        <mxCell id="e_cj9tgiayqz5bf3QVdc-9" value="&lt;br&gt;NumberOfRvaAndSizes " style="rounded=0;whiteSpace=wrap;html=1;container=0;fontFamily=Verdana;" vertex="1" parent="1">
          <mxGeometry x="540" y="230" width="120" height="30" as="geometry" />
        </mxCell>
        <mxCell id="e_cj9tgiayqz5bf3QVdc-10" value="" style="endArrow=classic;html=1;rounded=0;fontFamily=Verdana;entryX=0;entryY=0;entryDx=0;entryDy=0;" edge="1" parent="1" target="e_cj9tgiayqz5bf3QVdc-5">
          <mxGeometry width="50" height="50" relative="1" as="geometry">
            <mxPoint x="460" y="290" as="sourcePoint" />
            <mxPoint x="540" y="250" as="targetPoint" />
          </mxGeometry>
        </mxCell>
        <mxCell id="e_cj9tgiayqz5bf3QVdc-11" value="" style="endArrow=classic;html=1;rounded=0;exitX=1;exitY=0;exitDx=0;exitDy=0;entryX=0;entryY=1;entryDx=0;entryDy=0;fontFamily=Verdana;" edge="1" parent="1" target="e_cj9tgiayqz5bf3QVdc-9">
          <mxGeometry width="50" height="50" relative="1" as="geometry">
            <mxPoint x="460" y="319.17" as="sourcePoint" />
            <mxPoint x="500" y="319.17" as="targetPoint" />
          </mxGeometry>
        </mxCell>
        <mxCell id="e_cj9tgiayqz5bf3QVdc-12" value="section table" style="rounded=0;whiteSpace=wrap;html=1;container=0;fontFamily=Verdana;" vertex="1" parent="1">
          <mxGeometry x="110" y="350" width="120" height="30" as="geometry" />
        </mxCell>
        <mxCell id="e_cj9tgiayqz5bf3QVdc-13" value="&lt;div&gt; PKCS#7 structure&lt;/div&gt;&lt;div&gt;&lt;b&gt;&lt;font&gt;&lt;br&gt;&lt;/font&gt;&lt;/b&gt;&lt;/div&gt;&lt;div&gt;&lt;b&gt;&lt;font&gt;&lt;br&gt;&lt;/font&gt;&lt;/b&gt;&lt;/div&gt;&lt;div&gt;&lt;b&gt;&lt;font&gt;&lt;br&gt;&lt;/font&gt;&lt;/b&gt;&lt;/div&gt;&lt;div&gt;&lt;b&gt;&lt;font&gt;&lt;br&gt;&lt;/font&gt;&lt;/b&gt;&lt;/div&gt;&lt;div&gt;&lt;b&gt;&lt;font&gt;&lt;br&gt;&lt;/font&gt;&lt;/b&gt;&lt;/div&gt;&lt;div&gt;&lt;b&gt;&lt;font&gt;&lt;br&gt;&lt;/font&gt;&lt;/b&gt;&lt;/div&gt;&lt;div&gt;&lt;b&gt;&lt;font&gt;&lt;br&gt;&lt;/font&gt;&lt;/b&gt;&lt;/div&gt;&lt;div&gt;&lt;b&gt;&lt;font&gt;&lt;br&gt;&lt;/font&gt;&lt;/b&gt;&lt;/div&gt;" style="text;whiteSpace=wrap;html=1;fontFamily=Verdana;" vertex="1" parent="1">
          <mxGeometry x="400" y="530" width="210" height="20" as="geometry" />
        </mxCell>
      </root>
    </mxGraphModel>
  </diagram>
</mxfile>
